<?xml version="1.0" encoding="utf-8"?>
<!-- Generator: Adobe Illustrator 24.2.0, SVG Export Plug-In . SVG Version: 6.00 Build 0)  -->
<svg version="1.1" xmlns="http://www.w3.org/2000/svg" xmlns:xlink="http://www.w3.org/1999/xlink" x="0px" y="0px"
	 viewBox="0 0 86.5 72.9" style="enable-background:new 0 0 86.5 72.9;" xml:space="preserve">
<g id="Layer_2">
</g>
<g id="Layer_1">
	<path d="M7.6,31.2h58.9L46,10.7c-2.1-2.1-2.1-5.4,0-7.4c1-1,2.4-1.5,3.7-1.5s2.7,0.5,3.7,1.5L83,32.8c0.1,0.1,0.2,0.3,0.4,0.4
		c0,0.1,0.1,0.1,0.1,0.2c0.1,0.1,0.1,0.2,0.2,0.2c0,0.1,0.1,0.1,0.1,0.2c0,0.1,0.1,0.1,0.1,0.2c0,0.1,0.1,0.2,0.1,0.2
		c0,0.1,0.1,0.2,0.1,0.2c0,0.1,0.1,0.2,0.1,0.2c0,0.1,0.1,0.2,0.1,0.3c0,0.1,0,0.2,0.1,0.2c0,0.1,0,0.2,0.1,0.3c0,0.1,0,0.2,0,0.3
		c0,0.1,0,0.1,0,0.2c0,0.3,0,0.7,0,1c0,0.1,0,0.2,0,0.2c0,0.1,0,0.2,0,0.3c0,0.1,0,0.2-0.1,0.3c0,0.1,0,0.2-0.1,0.2
		c0,0.1-0.1,0.2-0.1,0.3c0,0.1-0.1,0.2-0.1,0.2c0,0.1-0.1,0.2-0.1,0.2c0,0.1-0.1,0.2-0.1,0.2c0,0.1-0.1,0.1-0.1,0.2
		c0,0.1-0.1,0.2-0.1,0.2c-0.1,0.1-0.1,0.2-0.2,0.2c0,0.1-0.1,0.1-0.1,0.2c-0.1,0.1-0.2,0.3-0.4,0.4L53.4,69.8
		c-2.1,2.1-5.4,2.1-7.4,0c-2.1-2.1-2.1-5.4,0-7.4l20.6-20.6H7.6c-2.9,0-5.3-2.4-5.3-5.3S4.7,31.2,7.6,31.2z"/>
</g>
</svg>
