<svg xmlns="http://www.w3.org/2000/svg" viewBox="0 0 294.72 159.05"><defs><style>.cls-1{fill:#d5594f;stroke-width:4px;}.cls-1,.cls-2{stroke:#f6f6f6;stroke-miterlimit:10;}.cls-2{fill:none;stroke-width:2px;}.cls-3,.cls-4{fill:#f4d74b;}.cls-4{font-size:12.04px;font-family:Poppins-Bold, Poppins;font-weight:700;letter-spacing:1.53em;}</style></defs><g id="Layer_2" data-name="Layer 2"><g id="logo_colored"><g id="logo_version_1"><rect id="background" class="cls-1" x="2" y="2" width="290.72" height="155.05" rx="22.68"/><rect id="border_inside" class="cls-2" x="11.69" y="11.69" width="271.34" height="135.67" rx="20.49"/><g id="logo_content"><g id="DUI"><path class="cls-3" d="M54,38.32h29.5a31,31,0,0,1,31,31v1.58a31,31,0,0,1-31,31H54a3.1,3.1,0,0,1-3.1-3.1V41.42A3.1,3.1,0,0,1,54,38.32Z"/><path class="cls-3" d="M117.64,38.32h29.5a31,31,0,0,1,31,31v1.58a31,31,0,0,1-31,31h-29.5a3.1,3.1,0,0,1-3.1-3.1V41.42a3.1,3.1,0,0,1,3.1-3.1Z" transform="translate(216.48 -76.21) rotate(90)"/><rect class="cls-3" x="178.4" y="59.53" width="63.62" height="42.42" rx="3.1"/><rect class="cls-3" x="178.4" y="38.32" width="63.62" height="10.6" rx="3.1"/></g><text class="cls-4" transform="translate(50.91 117.44)">CLOTHING</text></g></g></g></g></svg>