<svg xmlns="http://www.w3.org/2000/svg" viewBox="0 0 294.72 159.05"><defs><style>.cls-1{fill:#d5594f;stroke-width:4px;}.cls-1,.cls-2{stroke:#f6f6f6;stroke-miterlimit:10;}.cls-2{fill:none;stroke-width:2px;}.cls-3{fill:#f4d74b;}</style></defs><g id="Layer_2" data-name="Layer 2"><g id="logo_nav"><g id="logo_nav_red"><rect class="cls-1" x="2" y="2" width="290.72" height="155.05" rx="22.68"/><rect class="cls-2" x="11.69" y="11.69" width="271.34" height="135.67" rx="20.49"/><g id="DUI"><path class="cls-3" d="M62.71,50.45h27A28.35,28.35,0,0,1,118,78.8v1.45a28.35,28.35,0,0,1-28.35,28.35h-27a2.83,2.83,0,0,1-2.83-2.83V53.29A2.83,2.83,0,0,1,62.71,50.45Z"/><path class="cls-3" d="M120.9,50.45h27A28.35,28.35,0,0,1,176.21,78.8v1.45a28.35,28.35,0,0,1-28.35,28.35h-27a2.83,2.83,0,0,1-2.83-2.83V53.29a2.83,2.83,0,0,1,2.83-2.83Z" transform="translate(226.66 -67.62) rotate(90)"/><rect class="cls-3" x="176.44" y="69.84" width="58.14" height="38.76" rx="2.83"/><rect class="cls-3" x="176.44" y="50.45" width="58.14" height="9.69" rx="2.83"/></g></g></g></g></svg>