<svg xmlns="http://www.w3.org/2000/svg" viewBox="0 0 294.72 159.05"><defs><style>.cls-1{fill:#d5594f;stroke-width:4px;}.cls-1,.cls-3{stroke:#f6f6f6;stroke-miterlimit:10;}.cls-2,.cls-4,.cls-5{fill:#f4d74b;}.cls-3{fill:none;stroke-width:2px;}.cls-4{font-size:8px;font-family:Poppins-Light, Poppins;font-weight:300;letter-spacing:0.3em;}.cls-5{font-size:11px;font-family:Poppins-Bold, Poppins;font-weight:700;letter-spacing:1.53em;}</style></defs><g id="Layer_2" data-name="Layer 2"><g id="logo_colored"><g id="logo_version_1"><rect id="background" class="cls-1" x="2" y="2" width="290.72" height="155.05" rx="22.68"/><g id="stars"><polygon class="cls-2" points="116.39 119.37 118.02 119.62 116.73 120.65 117.33 122.19 115.79 121.59 114.76 122.88 114.51 121.25 112.88 121 114.16 119.96 113.57 118.43 115.11 119.02 116.14 117.74 116.39 119.37"/><polygon class="cls-2" points="179.72 119.37 181.35 119.62 180.06 120.65 180.66 122.19 179.12 121.59 178.09 122.88 177.84 121.25 176.21 121 177.49 119.96 176.9 118.43 178.43 119.02 179.47 117.74 179.72 119.37"/></g><rect id="border_inside" class="cls-3" x="11.69" y="11.69" width="271.34" height="135.67" rx="20.49"/><g id="logo_content"><text class="cls-4" transform="translate(122.29 123.88)">EST 2021</text><g id="DUI"><path class="cls-2" d="M62.71,36.66h27A28.35,28.35,0,0,1,118,65v1.45A28.35,28.35,0,0,1,89.67,94.8h-27A2.83,2.83,0,0,1,59.88,92V39.5A2.83,2.83,0,0,1,62.71,36.66Z"/><path class="cls-2" d="M120.9,36.66h27A28.35,28.35,0,0,1,176.21,65v1.45A28.35,28.35,0,0,1,147.86,94.8h-27A2.83,2.83,0,0,1,118.07,92V39.5a2.83,2.83,0,0,1,2.83-2.83Z" transform="translate(212.87 -81.41) rotate(90)"/><rect class="cls-2" x="176.44" y="56.04" width="58.14" height="38.76" rx="2.83"/><rect class="cls-2" x="176.44" y="36.66" width="58.14" height="9.69" rx="2.83"/></g><text class="cls-5" transform="translate(59.92 108.96)">CLOTHING</text></g></g></g></g></svg>