<?xml version="1.0" encoding="utf-8"?>
<!-- Generator: Adobe Illustrator 24.2.0, SVG Export Plug-In . SVG Version: 6.00 Build 0)  -->
<svg version="1.1" id="Capa_1" xmlns="http://www.w3.org/2000/svg" xmlns:xlink="http://www.w3.org/1999/xlink" x="0px" y="0px"
	 viewBox="0 0 512 512" style="enable-background:new 0 0 512 512;" xml:space="preserve">
<style type="text/css">
	.st0{stroke:#FFFFFF;stroke-miterlimit:10;}
	.st1{stroke:#FFFFFF;stroke-width:1.1137;stroke-miterlimit:10;}
</style>
<g>
	<g>
		<path d="M202.7,0.3C90.9,0.3,0.3,90.9,0.3,202.7C0.3,314.4,90.9,405,202.7,405C314.4,405,405,314.4,405,202.7
			C405,90.9,314.4,0.3,202.7,0.3z M202.7,362.7c-88.2,0-160-71.8-160-160c0-88.2,71.8-160,160-160c88.2,0,160,71.8,160,160
			C362.7,290.9,290.9,362.7,202.7,362.7z M505.8,475.6L376.4,346.2c-9.1,11-19.2,21.1-30.2,30.2l129.4,129.4
			c4.2,4.2,9.6,6.2,15.1,6.2c5.5,0,10.9-2.1,15.1-6.2C514.1,497.4,514.1,483.9,505.8,475.6z"/>
	</g>
</g>
<path class="st0" d="M202.7,0.3C90.9,0.3,0.3,90.9,0.3,202.7C0.3,314.4,90.9,405,202.7,405C314.4,405,405,314.4,405,202.7
	C405,90.9,314.4,0.3,202.7,0.3z M202.7,362.7c-88.2,0-160-71.8-160-160c0-88.2,71.8-160,160-160c88.2,0,160,71.8,160,160
	C362.7,290.9,290.9,362.7,202.7,362.7z"/>
<path class="st1" d="M202.7,0.3C90.9,0.3,0.3,90.9,0.3,202.7C0.3,314.4,90.9,405,202.7,405C314.4,405,405,314.4,405,202.7
	C405,90.9,314.4,0.3,202.7,0.3z M202.7,362.7c-88.2,0-160-71.8-160-160c0-88.2,71.8-160,160-160c88.2,0,160,71.8,160,160
	C362.7,290.9,290.9,362.7,202.7,362.7z"/>
</svg>
